<?xml version="1.0" encoding="UTF-8" standalone="no"?>
<!-- Uploaded to: SVG Repo, www.svgrepo.com, Generator: SVG Repo Mixer Tools -->

<svg
   fill="#000000"
   width="800px"
   height="800px"
   viewBox="0 0 24 24"
   id="Layer_1"
   data-name="Layer 1"
   version="1.1"
   sodipodi:docname="ball-basketball-svgrepo-com.svg"
   inkscape:version="1.3.2 (091e20e, 2023-11-25, custom)"
   xmlns:inkscape="http://www.inkscape.org/namespaces/inkscape"
   xmlns:sodipodi="http://sodipodi.sourceforge.net/DTD/sodipodi-0.dtd"
   xmlns:xlink="http://www.w3.org/1999/xlink"
   xmlns="http://www.w3.org/2000/svg"
   xmlns:svg="http://www.w3.org/2000/svg">
  <defs
     id="defs1">
    <linearGradient
       id="linearGradient1"
       inkscape:collect="always">
      <stop
         style="stop-color:#ff6700;stop-opacity:1;"
         offset="0.34287003"
         id="stop1" />
      <stop
         style="stop-color:#0076ff;stop-opacity:1;"
         offset="0.61902511"
         id="stop2" />
    </linearGradient>
    <linearGradient
       inkscape:collect="always"
       xlink:href="#linearGradient1"
       id="linearGradient2"
       x1="2.049"
       y1="11.053"
       x2="19.736"
       y2="18.323999"
       gradientUnits="userSpaceOnUse"
       spreadMethod="pad" />
  </defs>
  <sodipodi:namedview
     id="namedview1"
     pagecolor="#505050"
     bordercolor="#ffffff"
     borderopacity="1"
     inkscape:showpageshadow="0"
     inkscape:pageopacity="0"
     inkscape:pagecheckerboard="1"
     inkscape:deskcolor="#505050"
     inkscape:zoom="0.96375"
     inkscape:cx="400"
     inkscape:cy="400"
     inkscape:window-width="1920"
     inkscape:window-height="1009"
     inkscape:window-x="1021"
     inkscape:window-y="2152"
     inkscape:window-maximized="1"
     inkscape:current-layer="Layer_1" />
  <path
     d="M20.506,20.454a11.975,11.975,0,0,0,0-16.908c-.009-.01-.011-.022-.021-.031s-.021-.012-.031-.021a11.975,11.975,0,0,0-16.907,0c-.01.009-.023.012-.032.022s-.013.022-.022.032a11.975,11.975,0,0,0,0,16.906c.009.01.012.023.022.032s.022.013.032.022a11.975,11.975,0,0,0,16.907,0c.01-.009.022-.011.031-.021S20.5,20.464,20.506,20.454Zm-18.449-7.4a9.927,9.927,0,0,1,5.275,2.2l-3.07,3.07A9.951,9.951,0,0,1,2.057,13.058Zm2.2-7.382L10.586,12,8.749,13.837a11.921,11.921,0,0,0-6.7-2.784A9.956,9.956,0,0,1,4.262,5.676Zm17.681,5.266a9.935,9.935,0,0,1-5.275-2.2l3.07-3.07A9.951,9.951,0,0,1,21.943,10.942Zm-6.689-3.61a9.927,9.927,0,0,1-2.2-5.275,9.951,9.951,0,0,1,5.266,2.2ZM13.836,8.75,12,10.586,5.676,4.262a9.956,9.956,0,0,1,5.377-2.214A11.933,11.933,0,0,0,13.836,8.75Zm-5.09,7.918a9.927,9.927,0,0,1,2.2,5.275,9.951,9.951,0,0,1-5.266-2.205Zm1.417-1.417L12,13.414l6.324,6.324a9.948,9.948,0,0,1-5.377,2.214A11.921,11.921,0,0,0,10.163,15.251ZM13.414,12l1.836-1.836a11.933,11.933,0,0,0,6.7,2.783,9.956,9.956,0,0,1-2.214,5.377Z"
     id="path1"
     inkscape:label="path1"
     style="fill:url(#linearGradient2)" />
</svg>
